<svg xmlns="http://www.w3.org/2000/svg" viewBox="0 0 18 18" fill="currentColor" width="14" height="14" role="button" tabindex="0" aria-hidden="false" class="icon_component icon_component--clickable"><path d="M3.19922 17.0497C1.95658 17.0497 0.949219 16.0423 0.949219 14.7997V3.19971C0.949219 1.95707 1.95658 0.949707 3.19922 0.949707H9.19922C10.4419 0.949707 11.4492 1.95707 11.4492 3.19971L11.4492 14.7997C11.4492 16.0423 10.4419 17.0497 9.19922 17.0497H3.19922ZM2.44922 14.7997C2.44922 15.2139 2.78501 15.5497 3.19922 15.5497H9.19922C9.61343 15.5497 9.94922 15.2139 9.94922 14.7997L9.94922 3.19971C9.94922 2.78549 9.61343 2.44971 9.19922 2.44971L3.19922 2.44971C2.785 2.44971 2.44922 2.78549 2.44922 3.19971L2.44922 14.7997Z" fill="currentColor" fill-rule="evenodd" clip-rule="evenodd"></path><path d="M13.499 15.7499C13.0848 15.7499 12.749 15.4141 12.749 14.9999L12.749 2.9999C12.749 2.58569 13.0848 2.2499 13.499 2.2499 13.9132 2.2499 14.249 2.58569 14.249 2.9999L14.249 14.9999C14.249 15.4141 13.9132 15.7499 13.499 15.7499zM15.5488 14.3334C15.5488 14.7476 15.8846 15.0834 16.2988 15.0834 16.713 15.0834 17.0488 14.7476 17.0488 14.3334V3.66673C17.0488 3.25252 16.713 2.91673 16.2988 2.91673 15.8846 2.91673 15.5488 3.25252 15.5488 3.66673L15.5488 14.3334z" fill="currentColor"></path></svg>